<?xml version="1.0" standalone="no"?>
<!DOCTYPE svg PUBLIC "-//W3C//DTD SVG 20010904//EN"
 "http://www.w3.org/TR/2001/REC-SVG-20010904/DTD/svg10.dtd">
<svg version="1.0" xmlns="http://www.w3.org/2000/svg"
 width="1536.000000pt" height="1024.000000pt" viewBox="0 0 1536.000000 1024.000000"
 preserveAspectRatio="xMidYMid meet">

<g transform="translate(0.000000,1024.000000) scale(0.100000,-0.100000)"
fill="#000000" stroke="none">
<path d="M3194 6924 c-174 -29 -371 -110 -513 -211 -83 -59 -222 -197 -288
-286 -47 -62 -52 -74 -63 -155 -15 -102 -8 -275 15 -372 21 -89 61 -192 103
-269 58 -106 202 -289 179 -229 -18 48 -29 204 -24 323 25 528 316 918 773
1035 138 36 262 43 484 31 112 -7 207 -14 212 -17 4 -3 8 -2 8 1 0 10 -126 64
-234 100 -56 19 -144 41 -196 50 -116 18 -344 18 -456 -1z"/>
<path d="M2964 6378 c-172 -188 -258 -381 -279 -628 l-6 -75 34 67 c120 234
274 395 513 533 43 26 68 43 55 40 -16 -5 -21 -4 -17 4 4 7 -1 11 -13 11 -11
0 -22 4 -25 9 -3 4 -24 11 -46 15 -95 15 -142 29 -159 47 -18 19 -19 19 -57
-23z"/>
<path d="M3606 6364 c-4 -9 -13 -14 -22 -10 -21 8 -146 -57 -276 -142 -274
-181 -460 -414 -549 -684 -34 -104 -35 -111 -12 -78 73 110 143 143 343 160
336 30 502 71 698 175 208 111 425 306 536 484 30 46 29 46 -54 -9 -68 -46
-156 -91 -256 -130 -91 -36 -124 -34 -42 3 31 14 74 37 95 52 37 26 38 26 8
19 -16 -3 -51 -13 -76 -21 -45 -14 -47 -14 -98 16 -28 17 -60 31 -70 31 -10 0
-21 3 -25 8 -8 7 -13 8 -41 11 -9 0 -19 9 -22 19 -9 23 -37 47 -73 62 -16 7
-27 16 -25 21 3 4 -3 13 -14 18 -15 8 -20 7 -25 -5z"/>
<path d="M4530 6369 c0 -22 -78 -176 -124 -246 -26 -40 -68 -95 -92 -122 l-45
-50 30 -48 c78 -127 138 -289 161 -439 7 -43 14 -81 16 -83 7 -8 116 84 184
156 40 41 67 66 61 55 -24 -46 -131 -170 -187 -219 l-59 -51 -13 -97 c-19
-138 -28 -152 -24 -34 l4 101 -73 -41 c-93 -53 -164 -86 -258 -121 l-74 -27
-28 -86 c-15 -47 -37 -104 -49 -126 l-20 -41 87 0 c244 1 438 59 584 175 49
38 61 56 93 129 79 184 115 402 96 574 -24 217 -86 398 -191 557 -59 89 -79
110 -79 84z"/>
<path d="M10160 6335 c-73 -23 -152 -77 -192 -130 -59 -78 -73 -130 -73 -275
0 -119 1 -128 31 -190 74 -155 212 -228 410 -218 75 4 104 11 157 36 124 58
198 160 217 305 14 97 -1 212 -35 283 -32 65 -109 138 -183 172 -50 23 -72 27
-172 29 -79 2 -129 -2 -160 -12z m267 -117 c75 -50 121 -186 109 -325 -14
-175 -98 -273 -234 -273 -159 0 -243 131 -230 359 11 187 90 275 244 269 57
-3 79 -8 111 -30z"/>
<path d="M5110 6285 l0 -55 130 0 130 0 0 -345 0 -345 85 0 85 0 0 345 0 345
135 0 135 0 0 55 0 55 -350 0 -350 0 0 -55z"/>
<path d="M5900 5941 c0 -372 1 -400 18 -404 9 -3 69 -4 132 -2 63 1 179 3 258
4 l143 1 -3 48 -3 47 -187 3 -188 2 0 125 0 124 158 3 157 3 3 53 3 52 -160 0
-161 0 0 115 0 115 185 0 185 0 0 55 0 55 -270 0 -270 0 0 -399z"/>
<path d="M6568 6334 c-5 -4 -8 -184 -8 -401 l0 -393 85 0 84 0 3 143 3 142 51
3 c42 2 53 0 58 -15 4 -9 43 -75 88 -145 l80 -128 99 0 c55 0 99 2 99 5 0 3
-20 31 -43 62 -59 79 -167 240 -167 250 0 4 21 20 45 35 165 100 145 349 -33
419 -50 20 -79 23 -247 27 -104 2 -193 0 -197 -4z m331 -112 c56 -28 76 -64
76 -136 0 -110 -52 -156 -172 -156 l-73 0 0 155 0 155 68 0 c44 0 79 -6 101
-18z"/>
<path d="M7290 5940 l0 -400 85 0 85 0 0 145 0 145 50 0 c41 0 51 -4 61 -22 6
-13 46 -78 88 -145 l76 -123 102 0 103 0 -33 43 c-18 24 -69 97 -113 161 -73
109 -78 119 -60 130 100 61 136 113 144 213 4 53 1 70 -22 117 -54 109 -129
136 -387 136 l-179 0 0 -400z m337 283 c91 -43 96 -218 8 -273 -24 -15 -50
-20 -104 -20 l-71 0 0 155 0 155 66 0 c41 0 79 -6 101 -17z"/>
<path d="M8200 6143 c-46 -109 -118 -280 -161 -380 -106 -249 -104 -223 -21
-223 l70 0 39 98 39 97 164 0 164 0 37 -95 37 -95 95 -3 96 -3 -13 39 c-12 33
-82 206 -258 640 l-50 122 -77 0 -77 0 -84 -197z m246 -299 c-7 -17 -221 -20
-231 -4 -5 9 34 116 100 274 l17 40 59 -148 c33 -82 58 -155 55 -162z"/>
<path d="M9090 5940 l0 -400 60 0 60 0 2 285 3 285 215 -285 214 -285 78 0 78
0 0 400 0 400 -66 0 -66 0 7 -285 c4 -157 5 -285 3 -285 -3 0 -101 128 -219
285 l-214 285 -77 0 -78 0 0 -400z"/>
<path d="M10710 6333 c0 -4 47 -126 105 -272 57 -146 126 -322 153 -391 l49
-125 88 0 88 0 23 55 c13 30 72 171 132 314 l109 259 -17 71 c-17 76 -26 96
-40 96 -4 0 -52 -109 -105 -242 -53 -134 -111 -276 -127 -317 l-31 -74 -62
159 c-34 87 -88 230 -120 317 l-57 157 -94 0 c-52 0 -94 -3 -94 -7z"/>
<path d="M11457 6303 c3 -21 9 -56 12 -78 l7 -40 22 72 c12 39 22 74 22 77 0
3 -15 6 -34 6 -34 0 -35 0 -29 -37z"/>
<path d="M11672 6293 c-107 -253 -312 -744 -312 -749 0 -2 7 -4 15 -4 9 0 12
6 9 15 -8 20 22 31 42 15 12 -11 12 -15 2 -22 -8 -5 3 -7 30 -6 l43 3 38 95
37 95 162 3 c161 2 162 2 172 -20 5 -13 23 -58 40 -100 30 -73 33 -77 68 -82
20 -3 63 -2 94 2 l57 7 -160 395 c-87 217 -159 396 -159 398 0 1 -35 2 -79 2
l-78 0 -21 -47z m132 -298 c31 -80 56 -150 56 -156 0 -12 -223 -9 -235 2 -7 8
105 299 115 299 4 0 33 -65 64 -145z"/>
<path d="M2243 6158 c-92 -222 -123 -458 -89 -687 89 -601 540 -1026 1184
-1117 309 -43 632 35 901 219 91 62 250 218 309 304 l43 62 -53 -36 c-364
-245 -1139 -154 -1702 201 -49 31 -90 55 -92 54 -8 -9 102 -230 151 -302 90
-134 256 -285 393 -356 65 -34 43 -35 -32 -1 -153 69 -321 202 -423 334 -56
73 -122 197 -164 312 -30 82 -41 98 -119 180 -148 158 -237 318 -275 500 -20
94 -23 277 -6 349 6 27 10 50 8 53 -2 2 -18 -29 -34 -69z"/>
<path d="M4216 5891 c-6 -10 -127 -108 -179 -146 l-28 -20 22 -90 c19 -76 23
-119 23 -277 1 -104 2 -188 3 -188 1 0 35 12 75 26 80 29 189 81 255 123 52
32 53 45 18 182 -31 122 -53 181 -112 299 -46 91 -64 112 -77 91z"/>
<path d="M3875 5653 c-85 -44 -196 -85 -291 -108 l-71 -17 -7 -135 c-4 -74
-13 -169 -21 -211 -8 -42 -15 -83 -15 -89 0 -29 272 -7 446 35 l69 17 8 45
c20 109 -9 488 -38 496 -6 2 -41 -13 -80 -33z"/>
<path d="M3380 5510 c-30 -5 -131 -11 -225 -15 -192 -8 -290 -24 -342 -56 -42
-26 -93 -94 -93 -123 1 -56 333 -248 589 -340 l70 -25 11 37 c5 20 10 42 10
48 0 6 -60 23 -137 38 -144 28 -209 53 -81 31 40 -7 107 -16 149 -20 90 -8 81
-19 104 125 15 98 21 311 8 309 -5 -1 -33 -5 -63 -9z"/>
<path d="M5429 5225 c-27 -15 -49 -60 -49 -100 0 -59 76 -101 150 -83 40 10
40 11 40 57 l0 47 -40 -4 c-42 -4 -46 -22 -4 -22 20 0 24 -5 24 -30 0 -25 -5
-30 -33 -35 -88 -17 -141 69 -85 140 19 25 26 27 76 23 48 -4 53 -3 37 9 -24
17 -83 16 -116 -2z"/>
<path d="M5635 5146 c-4 -52 -4 -99 -1 -105 4 -6 37 -11 77 -11 56 0 69 3 69
16 0 13 -11 15 -57 13 l-58 -3 -3 37 -3 37 55 0 c31 0 56 5 56 10 0 6 -25 10
-55 10 -52 0 -55 2 -55 24 0 13 -2 31 -5 38 -5 11 7 13 60 10 44 -3 65 -1 65
7 0 7 -25 11 -69 11 l-69 0 -7 -94z"/>
<path d="M5844 5215 c-26 -40 -7 -72 52 -86 49 -13 64 -31 46 -60 -15 -24 2
-34 22 -13 36 35 12 78 -54 97 -38 11 -45 17 -45 37 0 24 3 25 53 24 51 -2 68
8 36 20 -9 3 -33 6 -55 6 -30 0 -42 -5 -55 -25z"/>
<path d="M6068 5233 c21 -4 22 -9 22 -99 0 -60 4 -94 11 -94 7 0 9 32 7 93
l-3 92 38 -4 c22 -2 37 1 37 8 0 7 -24 11 -67 10 -38 -1 -58 -4 -45 -6z"/>
<path d="M6235 5149 c-22 -51 -41 -96 -43 -100 -9 -22 20 -6 30 16 10 22 17
25 65 25 47 0 55 -3 65 -24 11 -25 38 -43 38 -26 0 6 -4 10 -10 10 -5 0 -9 3
-8 8 4 20 -68 177 -84 180 -9 2 -27 -29 -53 -89z m80 11 c10 -22 16 -43 13
-46 -3 -3 -24 -4 -45 -2 l-39 3 18 43 c10 23 22 42 27 42 4 0 16 -18 26 -40z"/>
<path d="M6500 5230 c8 -5 27 -10 43 -10 20 0 33 -9 48 -32 38 -62 2 -132 -67
-132 -54 0 -77 32 -72 101 5 59 -3 68 -22 23 -35 -85 45 -170 135 -140 44 15
65 44 65 93 0 49 -13 73 -50 92 -33 17 -106 22 -80 5z"/>
<path d="M6801 5163 c1 -64 2 -73 10 -48 5 17 7 49 4 73 l-6 43 48 -7 c26 -3
55 -10 64 -15 9 -5 18 -6 21 -4 2 2 4 -4 5 -13 1 -9 5 -31 8 -47 9 -44 -20
-77 -81 -91 l-49 -12 45 1 c76 0 109 27 110 90 0 20 -4 37 -9 37 -5 0 -8 8 -7
17 2 25 -60 53 -116 53 l-48 0 1 -77z"/>
<path d="M7065 5230 c28 -12 125 -12 125 0 0 6 -30 10 -72 9 -50 0 -67 -3 -53
-9z"/>
<path d="M7353 5155 c6 -91 26 -152 27 -82 0 34 2 37 29 37 23 0 34 -8 51 -35
12 -19 29 -35 38 -35 15 0 15 2 2 10 -8 5 -12 10 -7 10 4 0 0 11 -8 24 -15 23
-15 26 4 45 12 12 21 34 21 50 0 43 -31 61 -104 61 l-59 0 6 -85z m113 57 c41
-28 8 -82 -51 -82 -35 0 -35 0 -35 45 l0 45 38 0 c20 0 42 -4 48 -8z"/>
<path d="M7580 5150 c0 -92 14 -120 26 -53 4 21 2 56 -5 81 -6 24 -9 48 -6 53
4 5 1 9 -4 9 -7 0 -11 -33 -11 -90z"/>
<path d="M7696 5227 c-12 -9 -17 -23 -14 -47 3 -32 7 -36 53 -51 54 -17 70
-43 39 -66 -17 -13 -59 -8 -81 9 -7 6 -14 5 -18 -3 -12 -19 17 -29 74 -27 63
3 81 21 66 64 -8 21 -22 31 -60 44 -37 12 -51 22 -53 38 -4 27 31 43 70 31 29
-8 39 4 12 15 -26 10 -69 7 -88 -7z"/>
<path d="M7899 5211 c-55 -56 -30 -156 41 -166 3 0 10 -3 16 -7 11 -7 62 3 84
17 24 15 -3 22 -30 8 -52 -25 -110 7 -110 62 0 18 3 46 6 62 6 28 9 30 56 32
28 1 56 -3 63 -9 9 -7 15 -8 19 -1 10 15 -28 31 -74 31 -33 0 -48 -6 -71 -29z"/>
<path d="M8128 5211 c-28 -25 -33 -36 -33 -75 0 -33 6 -51 21 -67 15 -14 24
-17 29 -10 4 7 1 10 -7 9 -9 -2 -14 13 -16 53 -3 51 0 59 24 78 36 28 79 27
110 -4 20 -20 24 -33 22 -69 -2 -24 -6 -42 -10 -39 -5 2 -8 0 -8 -5 0 -14 -57
-35 -80 -29 -11 3 -23 0 -27 -6 -3 -7 -3 -9 2 -5 4 4 16 3 25 -2 20 -11 76 4
100 26 9 9 15 35 16 69 2 50 -1 58 -28 80 -42 36 -97 34 -140 -4z m143 -8 c13
-16 12 -17 -3 -4 -10 7 -18 15 -18 17 0 8 8 3 21 -13z"/>
<path d="M8377 5222 c-21 -23 -22 -56 -2 -72 8 -7 41 -19 73 -26 l57 -13 -24
20 c-13 10 -31 19 -40 19 -26 0 -61 29 -61 51 0 18 6 20 48 19 64 -2 69 -1 52
10 -25 16 -85 12 -103 -8z"/>
<path d="M8674 5215 c-25 -39 -7 -69 50 -85 25 -7 51 -18 57 -26 13 -16 8 -49
-9 -50 -6 -1 -19 -2 -27 -3 -8 0 -15 -6 -15 -11 0 -7 6 -7 19 -1 10 6 20 8 23
6 3 -3 13 4 23 15 31 34 11 70 -50 90 -42 14 -50 21 -50 41 0 22 4 24 45 25
64 2 67 3 50 14 -8 5 -34 10 -57 10 -35 0 -46 -5 -59 -25z"/>
<path d="M8930 5229 c0 -6 -6 -9 -14 -6 -8 3 -22 -4 -33 -16 -16 -19 -16 -20
0 -8 9 7 17 11 17 7 0 -4 13 0 29 9 17 8 38 12 48 8 29 -10 63 -45 63 -65 0
-10 5 -18 11 -18 8 0 8 -4 -1 -15 -6 -8 -9 -19 -6 -24 4 -5 -7 -18 -24 -27
-42 -25 -42 -46 1 -24 21 12 49 60 49 85 0 31 -31 82 -56 94 -32 14 -84 14
-84 0z"/>
<path d="M9195 5230 c3 -6 20 -8 36 -5 16 3 40 1 52 -5 21 -11 21 -11 3 4 -22
18 -101 22 -91 6z"/>
<path d="M9497 5229 c-23 -14 -47 -62 -47 -97 0 -32 36 -86 51 -77 5 4 9 1 9
-5 0 -6 5 -8 10 -5 7 4 1 16 -15 30 -54 51 -20 145 53 145 89 0 107 -122 25
-160 -18 -8 -33 -19 -33 -23 0 -4 9 -3 19 3 11 5 29 10 40 10 29 0 51 38 51
88 0 62 -41 102 -102 102 -24 0 -51 -5 -61 -11z"/>
<path d="M9750 5157 c-19 -45 -33 -86 -32 -91 2 -5 -3 -13 -10 -18 -10 -7 -10
-9 2 -5 8 2 16 15 18 28 3 24 3 24 67 15 48 -8 66 -15 71 -28 3 -10 12 -18 20
-18 11 0 11 6 -3 35 -12 25 -23 35 -38 34 -11 -1 -37 -1 -57 0 l-37 1 19 42
c19 42 40 62 40 37 0 -9 3 -10 11 -2 13 13 -5 53 -24 53 -7 0 -28 -37 -47 -83z
m60 63 c0 -5 -5 -10 -11 -10 -5 0 -7 5 -4 10 3 6 8 10 11 10 2 0 4 -4 4 -10z"/>
<path d="M9950 5140 c0 -118 18 -136 22 -22 l3 77 39 -59 38 -59 30 52 c16 28
34 51 39 51 5 0 9 -31 9 -70 0 -40 4 -70 10 -70 6 0 10 40 10 100 0 109 -10
126 -43 70 -10 -16 -16 -30 -13 -30 3 0 -6 -12 -20 -27 -13 -14 -25 -24 -27
-22 -93 142 -97 142 -97 9z"/>
<path d="M10224 5194 c3 -26 6 -62 6 -80 0 -19 5 -34 11 -34 7 0 10 12 7 28
-4 26 -2 27 32 24 73 -6 81 -11 78 -40 -3 -23 -10 -28 -53 -39 l-50 -11 56 -1
c31 -1 60 4 67 11 16 16 15 63 -2 77 -11 9 -12 18 -3 41 9 24 8 32 -8 49 -15
17 -30 21 -83 21 l-65 0 7 -46z m123 10 c11 -28 -11 -49 -56 -52 -41 -3 -41
-3 -41 32 0 36 0 36 45 36 33 0 47 -5 52 -16z"/>
<path d="M10551 5173 c1 -38 4 -79 9 -93 7 -24 7 -23 15 13 l7 37 55 0 c33 0
52 4 48 10 -3 6 -28 10 -56 10 -48 0 -49 1 -49 30 0 17 -5 30 -12 30 -8 0 -5
7 6 15 19 15 19 15 -2 15 -21 0 -22 -4 -21 -67z"/>
<path d="M10760 5140 c0 -60 4 -100 10 -100 6 0 10 32 10 75 0 41 3 75 8 75 4
0 30 -30 57 -67 62 -83 74 -95 87 -87 14 9 6 204 -9 204 -8 0 -13 -25 -15 -77
l-3 -78 -60 78 c-33 42 -65 77 -72 77 -10 0 -13 -25 -13 -100z"/>
<path d="M10980 5230 c0 -5 18 -10 40 -10 l40 0 0 -89 c0 -50 5 -93 10 -96 6
-4 10 29 10 92 l0 99 35 -4 c21 -3 35 0 35 7 0 7 -29 11 -85 11 -50 0 -85 -4
-85 -10z"/>
<path d="M11217 5186 c-44 -95 -44 -92 15 -95 66 -2 88 -9 88 -25 0 -8 7 -19
15 -26 24 -20 18 1 -27 105 -24 52 -48 95 -55 95 -6 0 -23 -24 -36 -54z m61
-28 c23 -51 20 -58 -18 -58 -55 0 -59 6 -36 55 12 24 24 44 28 45 4 0 16 -19
26 -42z"/>
<path d="M11412 5180 c-2 -38 1 -60 7 -60 7 0 11 24 11 60 0 33 -3 60 -8 60
-4 0 -9 -27 -10 -60z"/>
<path d="M11517 5222 c-25 -28 -20 -46 6 -22 17 16 32 21 65 18 42 -3 56 5 26
16 -31 12 -81 6 -97 -12z"/>
<path d="M9141 5204 c-44 -56 -8 -176 46 -157 8 3 3 13 -12 26 -35 32 -38 96
-6 124 19 16 19 33 1 33 -5 0 -18 -12 -29 -26z m39 12 c0 -2 -7 -7 -16 -10 -8
-3 -12 -2 -9 4 6 10 25 14 25 6z m-9 -153 c13 -16 12 -17 -3 -4 -10 7 -18 15
-18 17 0 8 8 3 21 -13z"/>
<path d="M7054 5212 c-6 -4 -12 -42 -13 -89 -3 -94 -11 -86 96 -87 32 -1 53 3
53 10 0 6 -8 11 -17 11 -10 -1 -37 0 -60 1 -42 2 -43 3 -43 37 l0 35 56 0 c34
0 53 4 49 10 -3 6 -28 10 -55 10 -48 0 -49 0 -52 35 -2 22 -7 32 -14 27z"/>
<path d="M11516 5174 c-3 -9 -4 -20 -1 -25 5 -8 60 -25 108 -35 33 -6 -1 24
-41 37 -20 6 -42 18 -48 25 -10 13 -13 12 -18 -2z"/>
<path d="M8861 5164 c0 -11 3 -14 6 -6 3 7 2 16 -1 19 -3 4 -6 -2 -5 -13z"/>
<path d="M9836 5151 c-4 -6 -2 -11 4 -11 6 0 8 -4 5 -10 -3 -5 -1 -10 4 -10
13 0 14 10 2 29 -6 9 -11 10 -15 2z"/>
<path d="M8860 5120 c0 -21 24 -58 44 -68 37 -19 64 -23 71 -12 3 6 -3 10 -16
10 -12 0 -38 17 -60 40 -22 22 -39 36 -39 30z"/>
<path d="M9370 5121 c0 -6 5 -13 10 -16 6 -3 10 1 10 9 0 9 -4 16 -10 16 -5 0
-10 -4 -10 -9z"/>
<path d="M3890 5068 c-57 -13 -142 -21 -261 -25 l-176 -6 -15 -48 -14 -49 45
-14 c25 -9 91 -24 146 -35 95 -19 120 -22 243 -36 l53 -6 15 37 c12 29 57 208
51 203 -1 -1 -40 -10 -87 -21z"/>
<path d="M8480 5080 c0 -5 5 -10 10 -10 6 0 10 5 10 10 0 6 -4 10 -10 10 -5 0
-10 -4 -10 -10z"/>
<path d="M11622 5062 c-11 -25 -11 -25 4 -10 9 9 15 21 13 27 -2 6 -10 -2 -17
-17z"/>
<path d="M8355 5070 c-3 -5 3 -13 13 -19 31 -17 108 -18 98 -2 -3 5 -15 7 -25
4 -11 -3 -34 2 -50 10 -17 9 -33 11 -36 7z"/>
<path d="M9276 5071 c-4 -5 -20 -12 -36 -16 -17 -4 -30 -11 -30 -17 0 -6 13
-7 33 -3 37 8 64 29 49 39 -6 3 -13 2 -16 -3z"/>
<path d="M11173 5064 c-15 -16 -16 -24 -4 -24 8 0 24 30 19 35 -2 2 -9 -3 -15
-11z"/>
<path d="M5844 5054 c11 -8 23 -14 28 -14 10 0 11 20 1 21 -5 0 -17 2 -28 4
-20 4 -20 4 -1 -11z"/>
<path d="M8673 5055 c11 -7 26 -11 35 -8 13 6 13 8 -4 14 -10 4 -26 8 -34 8
-12 0 -11 -3 3 -14z"/>
<path d="M11500 5055 c0 -9 72 -24 88 -17 14 5 12 7 -8 13 -29 8 -80 11 -80 4z"/>
<path d="M9368 5043 c7 -3 16 -2 19 1 4 3 -2 6 -13 5 -11 0 -14 -3 -6 -6z"/>
<path d="M10598 5043 c12 -2 32 -2 45 0 12 2 2 4 -23 4 -25 0 -35 -2 -22 -4z"/>
<path d="M10824 4939 c-19 -22 -19 -22 4 -10 12 6 22 16 22 21 0 15 -5 12 -26
-11z"/>
<path d="M10414 4918 l-19 -21 28 18 c28 18 33 25 19 25 -5 0 -17 -10 -28 -22z"/>
<path d="M5390 4780 l0 -100 70 0 c40 0 70 4 70 10 0 6 -25 10 -55 10 -54 0
-55 0 -55 30 0 17 -4 30 -10 30 -5 0 -10 25 -10 55 l0 54 68 4 67 3 -72 2 -73
2 0 -100z"/>
<path d="M5710 4871 c14 -5 41 -9 61 -10 19 -1 40 -6 47 -13 6 -6 19 -13 28
-14 14 -2 13 1 -4 19 -17 17 -36 22 -89 24 -48 2 -61 0 -43 -6z"/>
<path d="M5930 4780 l0 -100 70 0 c46 0 70 4 70 11 0 8 -20 10 -65 7 -36 -3
-65 -2 -65 2 0 4 5 21 11 39 10 29 14 31 60 31 27 0 49 5 49 10 0 6 -22 10
-50 10 l-50 0 -1 38 c-1 20 -1 40 0 45 0 4 -6 7 -14 7 -12 0 -15 -18 -15 -100z"/>
<path d="M6520 4870 c0 -5 7 -7 15 -4 8 4 15 8 15 10 0 2 -7 4 -15 4 -8 0 -15
-4 -15 -10z"/>
<path d="M6672 4780 c1 -55 6 -100 11 -100 4 0 7 45 7 100 0 65 -4 100 -11
100 -7 0 -10 -32 -7 -100z"/>
<path d="M6740 4875 c0 -22 86 -195 97 -195 7 0 13 4 13 9 0 5 3 18 6 28 5 15
4 15 -5 3 -16 -23 -36 3 -63 84 -13 38 -29 71 -36 74 -6 2 -12 1 -12 -3z"/>
<path d="M6905 4870 c3 -5 8 -10 11 -10 2 0 4 5 4 10 0 6 -5 10 -11 10 -5 0
-7 -4 -4 -10z"/>
<path d="M7020 4869 c0 -5 -5 -7 -12 -3 -7 4 -8 3 -4 -4 5 -8 13 -8 29 -1 16
7 31 7 52 -2 17 -7 35 -13 40 -13 6 -1 10 -24 10 -52 0 -34 4 -51 13 -51 7 0
12 15 12 39 0 56 -43 98 -99 98 -23 0 -41 -5 -41 -11z"/>
<path d="M7224 4800 c1 -104 16 -104 16 0 0 44 -4 80 -9 80 -5 0 -8 -36 -7
-80z"/>
<path d="M7530 4869 c0 -5 5 -7 10 -4 6 3 10 8 10 11 0 2 -4 4 -10 4 -5 0 -10
-5 -10 -11z"/>
<path d="M7690 4871 c0 -5 6 -12 13 -14 10 -4 10 -6 0 -6 -17 -1 -18 -171 -2
-171 7 0 9 28 7 80 -2 44 0 80 4 80 8 0 68 -88 68 -101 0 -22 18 -6 45 41 16
28 33 50 37 50 4 0 8 -34 8 -75 0 -43 4 -75 10 -75 6 0 10 40 10 100 0 123
-14 131 -61 34 -31 -65 -31 -66 -50 -47 -11 10 -21 29 -23 40 -6 31 -36 73
-52 73 -8 0 -14 -4 -14 -9z"/>
<path d="M8160 4869 c0 -5 5 -7 10 -4 6 3 10 1 10 -4 0 -6 -4 -11 -10 -11 -6
0 -10 -35 -10 -85 0 -56 4 -85 11 -85 8 0 10 24 7 80 -4 74 -3 79 14 76 20 -3
40 -25 33 -36 -2 -3 12 -26 31 -49 57 -73 40 -17 -18 59 -49 64 -78 86 -78 59z"/>
<path d="M8311 4818 c0 -35 4 -72 9 -83 6 -14 9 7 8 63 -1 45 -6 82 -10 82 -4
0 -8 -28 -7 -62z"/>
<path d="M8480 4870 c20 -13 60 -13 60 0 0 6 -17 10 -37 10 -28 0 -34 -3 -23
-10z"/>
<path d="M8689 4866 c18 -6 39 -20 47 -31 22 -30 17 -83 -11 -110 -71 -72
-178 28 -115 108 15 18 17 28 9 33 -7 4 -9 3 -6 -3 4 -6 -4 -18 -18 -27 -37
-25 -35 -87 4 -127 64 -64 171 -20 171 69 0 22 -3 48 -6 57 -8 20 -56 45 -86
44 -19 0 -17 -3 11 -13z"/>
<path d="M8963 4874 c11 -11 78 -14 72 -4 -4 6 -22 10 -42 10 -20 0 -33 -3
-30 -6z"/>
<path d="M9128 4833 c5 -83 9 -90 11 -20 0 37 -2 67 -7 67 -4 0 -6 -21 -4 -47z"/>
<path d="M9438 4868 c6 -6 18 -8 28 -6 14 3 12 5 -9 10 -19 3 -25 2 -19 -4z"/>
<path d="M9645 4870 c-3 -5 3 -10 14 -10 12 0 21 5 21 10 0 6 -6 10 -14 10 -8
0 -18 -4 -21 -10z"/>
<path d="M9930 4780 c0 -60 4 -100 10 -100 6 0 10 32 10 75 0 41 3 75 8 75 4
0 32 -34 62 -75 30 -41 61 -75 68 -75 15 0 17 118 1 140 -7 11 -9 -2 -7 -47 3
-47 1 -63 -9 -63 -7 0 -12 4 -10 10 3 14 -106 160 -120 160 -10 0 -13 -27 -13
-100z"/>
<path d="M10395 4871 c-3 -6 0 -9 7 -6 9 4 17 -9 24 -37 6 -24 14 -51 19 -60
6 -16 1 -18 -39 -18 l-46 0 20 51 c11 28 16 48 11 45 -14 -9 -54 -99 -53 -119
0 -9 -3 -15 -8 -12 -7 4 -20 -16 -20 -31 0 -14 22 0 32 21 10 22 17 25 68 25
63 0 73 5 61 29 -5 9 -17 38 -27 65 -19 49 -37 66 -49 47z"/>
<path d="M10513 4868 c52 -128 81 -188 91 -188 6 0 18 20 27 45 9 25 12 45 8
45 -5 0 -12 -14 -16 -32 -6 -31 -6 -31 -23 -10 -10 12 -21 18 -25 14 -5 -4 -5
1 -2 11 4 9 2 17 -3 17 -5 0 -6 7 -3 17 5 12 3 14 -7 8 -10 -6 -12 -4 -7 8 8
21 -14 77 -31 77 -8 0 -12 -6 -9 -12z"/>
<path d="M10675 4870 c-3 -5 -2 -10 4 -10 5 0 13 5 16 10 3 6 2 10 -4 10 -5 0
-13 -4 -16 -10z"/>
<path d="M10747 4860 c-3 -10 -5 -55 -5 -100 l0 -80 74 0 c43 0 74 4 74 10 0
6 -27 10 -60 10 l-60 0 0 38 0 37 50 -3 c32 -3 50 0 50 7 0 7 -20 11 -50 11
l-50 0 0 39 c0 37 2 40 33 44 29 3 28 4 -9 5 -34 2 -43 -2 -47 -18z"/>
<path d="M10940 4780 l0 -100 70 0 c45 0 70 4 70 11 0 8 -21 10 -62 7 l-63 -4
3 93 c3 63 0 93 -7 93 -7 0 -11 -34 -11 -100z"/>
<path d="M5691 4843 c0 -10 4 -36 8 -58 l8 -40 7 37 c4 20 6 44 4 54 -4 24
-28 30 -27 7z"/>
<path d="M6559 4849 c6 -9 7 -20 3 -24 -4 -5 -1 -5 6 -1 11 6 16 -4 14 -26 -1
-3 4 -11 12 -17 26 -22 13 18 -17 51 -16 18 -24 26 -18 17z"/>
<path d="M6881 4830 c-6 -18 -6 -30 0 -30 8 0 11 8 8 26 0 4 5 10 11 14 8 5 9
10 2 14 -6 3 -15 -8 -21 -24z"/>
<path d="M6977 4845 c-4 -8 -3 -16 1 -19 4 -3 9 4 9 15 2 23 -3 25 -10 4z"/>
<path d="M7378 4854 c-10 -15 58 -169 76 -172 9 -2 16 3 16 13 0 9 -4 14 -9
11 -5 -3 -18 18 -30 47 -40 97 -48 111 -53 101z"/>
<path d="M8457 4776 c-7 -83 -5 -107 8 -94 3 3 5 45 3 94 l-3 89 -8 -89z"/>
<path d="M5414 4815 l1 -40 53 -3 c31 -2 52 1 52 7 0 6 -21 11 -49 11 -48 0
-50 1 -54 33 -4 26 -4 24 -3 -8z"/>
<path d="M10656 4833 c-4 -9 -2 -21 4 -27 8 -8 9 -6 5 7 -4 10 -2 17 4 17 6 0
11 5 11 10 0 16 -17 11 -24 -7z"/>
<path d="M7961 4763 l-1 -83 70 0 c40 0 70 4 70 10 0 6 -26 10 -59 10 l-59 0
-10 73 -9 72 -2 -82z"/>
<path d="M6321 4758 l-1 -78 70 0 c40 0 70 4 70 10 0 6 -26 10 -59 10 l-59 0
-9 68 -10 67 -2 -77z"/>
<path d="M6523 4758 c1 -43 5 -78 10 -78 11 0 8 123 -3 140 -7 10 -9 -9 -7
-62z"/>
<path d="M9731 4814 c0 -11 3 -14 6 -6 3 7 2 16 -1 19 -3 4 -6 -2 -5 -13z"/>
<path d="M8930 4811 c0 -23 73 -51 84 -33 4 6 -3 8 -16 4 -16 -4 -19 -2 -13 8
6 10 4 12 -8 7 -10 -3 -17 -2 -17 2 0 5 -7 11 -15 15 -8 3 -15 2 -15 -3z"/>
<path d="M10227 4813 c-11 -10 -8 -73 3 -73 6 0 10 18 10 40 0 41 -2 45 -13
33z"/>
<path d="M6145 4799 c-7 -11 22 -26 68 -34 22 -4 34 -11 30 -18 -4 -6 -1 -7 6
-2 10 6 9 11 -3 23 -20 20 -94 43 -101 31z"/>
<path d="M6972 4785 c0 -16 2 -22 5 -12 2 9 2 23 0 30 -3 6 -5 -1 -5 -18z"/>
<path d="M9603 4775 c0 -22 2 -30 4 -17 2 12 2 30 0 40 -3 9 -5 -1 -4 -23z"/>
<path d="M9367 4790 c4 -4 26 -13 48 -20 47 -15 57 -27 44 -52 -11 -20 -58
-24 -89 -8 -11 6 -21 6 -24 1 -7 -11 9 -18 65 -26 37 -5 48 -3 63 14 22 24 15
65 -14 81 -23 12 -105 21 -93 10z"/>
<path d="M10640 4790 c0 -5 5 -10 11 -10 5 0 7 5 4 10 -3 6 -8 10 -11 10 -2 0
-4 -4 -4 -10z"/>
<path d="M6350 4780 c20 -13 90 -13 90 0 0 6 -24 10 -52 10 -38 0 -49 -3 -38
-10z"/>
<path d="M7995 4780 c-4 -6 13 -10 44 -10 28 0 51 5 51 10 0 6 -20 10 -44 10
-25 0 -48 -4 -51 -10z"/>
<path d="M9730 4737 l0 -57 70 0 c87 0 93 18 8 22 l-62 3 -4 40 c-6 60 -12 56
-12 -8z"/>
<path d="M9760 4780 c20 -13 100 -13 100 0 0 6 -26 10 -57 10 -41 0 -54 -3
-43 -10z"/>
<path d="M9275 4750 c3 -5 8 -10 11 -10 2 0 4 5 4 10 0 6 -5 10 -11 10 -5 0
-7 -4 -4 -10z"/>
<path d="M6986 4710 c14 -14 38 -24 66 -27 38 -4 49 -1 74 22 16 15 22 23 14
19 -43 -24 -119 -23 -160 0 -8 5 -5 -1 6 -14z"/>
<path d="M9251 4717 c-6 -8 -8 -17 -4 -20 7 -8 33 11 33 24 0 13 -16 11 -29
-4z"/>
<path d="M10474 4714 c3 -9 6 -20 6 -25 0 -5 7 -9 15 -9 12 0 13 4 3 25 -12
27 -34 35 -24 9z"/>
<path d="M5806 4708 c-10 -6 -38 -8 -62 -5 -32 3 -44 1 -49 -10 -4 -13 5 -15
60 -11 36 2 70 9 76 15 15 15 -3 23 -25 11z"/>
<path d="M6120 4712 c0 -15 9 -19 53 -27 22 -5 37 -3 37 3 0 5 -12 12 -27 14
-16 3 -36 9 -45 13 -11 4 -18 3 -18 -3z"/>
<path d="M6246 4703 c-6 -14 -5 -15 5 -6 7 7 10 15 7 18 -3 3 -9 -2 -12 -12z"/>
<path d="M8930 4711 c0 -29 82 -41 115 -17 16 12 13 13 -27 9 -25 -3 -55 0
-67 6 -13 8 -21 8 -21 2z"/>
<path d="M8316 4695 c-3 -8 -1 -15 4 -15 6 0 10 7 10 15 0 8 -2 15 -4 15 -2 0
-6 -7 -10 -15z"/>
<path d="M7240 4690 c-18 -6 -7 -8 43 -9 38 -1 67 3 67 9 0 12 -74 12 -110 0z"/>
<path d="M9190 4692 c0 -4 11 -9 26 -10 14 -1 23 2 19 8 -7 12 -45 14 -45 2z"/>
<path d="M10215 4690 c-3 -5 1 -10 10 -10 9 0 13 5 10 10 -3 6 -8 10 -10 10
-2 0 -7 -4 -10 -10z"/>
<path d="M9598 4683 c7 -3 16 -2 19 1 4 3 -2 6 -13 5 -11 0 -14 -3 -6 -6z"/>
<path d="M7747 3997 c-24 -156 -25 -147 29 -147 25 0 54 5 65 10 44 24 65 122
33 154 -21 21 -36 20 -68 -5 l-27 -21 5 23 c18 85 17 99 -2 99 -16 0 -21 -15
-35 -113z m101 -38 c4 -42 -29 -89 -60 -89 -18 0 -20 4 -15 41 5 41 42 92 61
86 6 -2 12 -19 14 -38z"/>
<path d="M8705 4098 c-6 -16 -35 -212 -35 -233 0 -24 29 -17 34 8 3 12 10 58
16 102 6 44 13 92 16 108 4 20 2 27 -11 27 -8 0 -18 -6 -20 -12z"/>
<path d="M10330 4085 c-34 -37 -17 -41 22 -6 22 20 28 31 17 31 -8 0 -26 -11
-39 -25z"/>
<path d="M5450 4087 c-63 -22 -107 -124 -78 -184 20 -42 76 -66 128 -54 23 5
44 12 47 15 4 3 8 31 11 61 l4 55 -33 -6 c-42 -8 -62 -24 -30 -24 19 0 22 -4
19 -32 -3 -30 -6 -33 -39 -36 -54 -5 -72 18 -67 85 3 32 12 61 23 73 23 25 76
35 105 20 18 -10 24 -9 31 1 5 9 1 18 -14 26 -28 15 -62 15 -107 0z"/>
<path d="M7284 4033 c-20 -38 -50 -92 -65 -120 -34 -62 -34 -63 -11 -63 10 0
26 14 35 30 16 27 23 30 68 30 47 0 50 -1 56 -30 4 -21 11 -30 24 -30 15 0 18
5 15 23 -17 76 -46 217 -46 222 0 3 -9 5 -20 5 -13 0 -30 -20 -56 -67z m60
-20 c11 -69 9 -73 -29 -73 -19 0 -35 3 -35 6 0 14 43 104 50 104 4 0 10 -17
14 -37z"/>
<path d="M7952 4083 c2 -10 10 -18 18 -18 8 0 16 8 18 18 2 12 -3 17 -18 17
-15 0 -20 -5 -18 -17z"/>
<path d="M10585 4090 c-4 -7 -3 -16 3 -22 14 -14 45 -2 40 15 -6 16 -34 21
-43 7z"/>
<path d="M9562 4008 c-7 -46 -15 -100 -18 -120 -6 -34 -4 -38 15 -38 15 0 21
6 21 23 0 53 10 67 50 67 72 0 121 72 86 125 -15 22 -24 25 -79 25 l-63 0 -12
-82z m113 46 c29 -30 -4 -84 -52 -84 -20 0 -23 5 -23 34 0 19 3 41 6 50 8 21
48 21 69 0z"/>
<path d="M8403 4053 c-3 -10 -15 -26 -27 -35 -18 -15 -19 -18 -3 -18 20 0 20
-8 6 -69 -14 -62 -5 -81 37 -81 24 0 34 5 34 15 0 8 -9 15 -21 15 -18 0 -20 4
-14 48 9 66 12 72 34 72 11 0 23 5 26 10 4 6 -5 10 -21 10 -23 0 -26 3 -22 25
6 29 -19 36 -29 8z"/>
<path d="M10690 4060 c0 -5 -10 -20 -21 -31 -16 -16 -18 -23 -9 -29 9 -6 10
-21 2 -66 -12 -73 -8 -84 34 -84 37 0 48 24 15 33 -13 3 -18 11 -16 23 2 11 7
36 10 57 4 28 11 37 25 37 28 0 34 18 8 22 -17 2 -22 9 -21 26 2 14 -3 22 -12
22 -8 0 -15 -4 -15 -10z"/>
<path d="M5660 4023 c-55 -20 -86 -102 -56 -148 17 -25 62 -34 101 -19 23 9
45 57 45 98 0 50 -46 85 -90 69z m48 -57 c5 -42 -6 -74 -29 -86 -44 -24 -64
32 -33 91 20 40 57 37 62 -5z"/>
<path d="M5990 4012 c-48 -23 -72 -89 -50 -130 12 -20 25 -28 52 -30 38 -3 85
14 73 26 -4 4 -25 7 -48 7 -30 0 -42 4 -45 16 -2 12 7 18 31 23 37 7 77 39 77
61 0 12 -36 45 -50 45 -3 0 -21 -8 -40 -18z m50 -26 c0 -20 -26 -38 -50 -34
-19 3 -20 4 -5 26 18 24 55 30 55 8z"/>
<path d="M6174 4008 c-23 -18 -27 -19 -21 -5 5 12 1 17 -12 17 -20 0 -21 -3
-37 -122 -6 -44 -5 -48 15 -48 17 0 21 6 21 31 0 45 28 98 56 105 15 4 24 13
24 25 0 25 -11 24 -46 -3z"/>
<path d="M6306 4009 c-21 -17 -26 -18 -26 -5 0 24 -29 19 -35 -6 -3 -13 -9
-51 -13 -85 -8 -57 -7 -63 10 -63 13 0 19 10 24 41 8 46 43 104 64 104 17 0
18 -23 6 -97 -7 -44 -5 -48 13 -48 15 0 21 9 26 43 3 23 9 56 11 73 4 21 0 36
-11 47 -22 22 -37 21 -69 -4z"/>
<path d="M6710 4023 c-8 -3 -23 -12 -32 -21 -16 -14 -18 -13 -18 1 0 10 -8 17
-19 17 -15 0 -20 -11 -25 -62 -4 -35 -10 -73 -13 -85 -4 -18 -1 -23 15 -23 16
0 21 9 27 46 8 54 56 116 75 97 9 -8 9 -24 1 -63 -15 -70 -14 -80 8 -80 14 0
20 10 25 46 9 70 7 109 -6 122 -13 13 -15 13 -38 5z"/>
<path d="M6849 4019 c-28 -10 -59 -65 -59 -104 0 -13 11 -37 25 -53 14 -17 25
-35 25 -41 0 -6 5 -11 11 -11 5 0 7 -4 4 -10 -3 -5 -16 -10 -28 -10 -20 -1
-20 -2 -5 -11 34 -19 79 27 47 47 -8 4 -2 12 15 21 14 7 26 20 26 28 0 18 -5
19 -29 3 -31 -19 -54 7 -48 54 7 55 24 71 64 65 36 -6 44 6 14 23 -23 12 -27
12 -62 -1z"/>
<path d="M7540 4022 c-8 -2 -23 -11 -32 -20 -16 -14 -18 -13 -18 1 0 10 -6 17
-14 17 -10 0 -17 -16 -21 -47 -4 -27 -11 -65 -15 -85 -7 -33 -5 -38 10 -38 19
0 30 19 30 53 0 31 36 87 56 87 15 0 16 -9 10 -70 -6 -66 -5 -70 14 -70 16 0
20 7 20 31 0 39 27 97 51 110 27 14 34 -10 20 -66 -15 -61 -14 -75 8 -75 16 0
21 10 26 58 4 31 7 62 7 67 2 52 -21 64 -68 36 -19 -11 -34 -16 -34 -11 0 14
-33 28 -50 22z"/>
<path d="M8065 4016 c-52 -23 -79 -98 -51 -141 18 -27 70 -34 107 -15 32 18
21 28 -28 27 -37 -2 -48 2 -51 15 -2 12 6 19 32 23 36 7 76 37 76 58 -1 36
-42 52 -85 33z m45 -29 c0 -19 -21 -37 -42 -37 -22 0 -23 13 -2 34 19 19 44
21 44 3z"/>
<path d="M8263 4018 c-13 -6 -23 -15 -23 -20 0 -4 -4 -8 -10 -8 -5 0 -10 7
-10 15 0 8 -6 15 -14 15 -9 0 -17 -23 -25 -75 -14 -97 -14 -95 9 -95 15 0 20
7 20 29 0 61 48 133 74 112 10 -9 10 -24 1 -76 -13 -65 -12 -66 9 -63 18 3 22
12 30 77 8 67 7 75 -9 87 -22 16 -23 16 -52 2z"/>
<path d="M8894 4020 c-57 -23 -85 -118 -46 -153 24 -22 90 -23 99 -2 8 23 -2
28 -27 15 -30 -16 -50 3 -50 46 0 47 31 77 71 69 33 -8 40 9 10 25 -23 12 -29
12 -57 0z"/>
<path d="M9038 4019 c-28 -11 -58 -62 -58 -101 0 -40 27 -68 65 -68 47 0 64 8
80 41 41 78 -11 155 -87 128z m60 -53 c8 -64 -30 -113 -65 -85 -17 15 -13 80
8 105 20 25 54 13 57 -20z"/>
<path d="M9270 4022 c-8 -2 -23 -11 -32 -20 -16 -14 -18 -13 -18 1 0 23 -27
22 -33 0 -3 -10 -8 -40 -12 -68 -3 -27 -8 -58 -11 -67 -4 -13 0 -18 15 -18 16
0 21 9 27 45 7 49 36 95 61 95 13 0 14 -11 8 -70 -6 -60 -5 -70 9 -70 9 0 18
11 21 25 3 14 7 36 10 48 6 32 44 79 57 71 7 -4 8 -31 4 -75 -7 -64 -6 -69 13
-69 17 0 20 9 26 77 7 66 5 78 -10 89 -19 14 -40 9 -67 -14 -11 -9 -18 -11
-18 -4 0 15 -31 30 -50 24z"/>
<path d="M9911 4016 c-32 -18 -50 -53 -51 -97 0 -45 25 -69 72 -69 45 0 78 34
85 88 5 34 1 45 -20 66 -29 29 -50 32 -86 12z m57 -28 c32 -32 -11 -128 -51
-113 -35 14 -12 125 27 125 6 0 17 -5 24 -12z"/>
<path d="M10135 4018 c-11 -6 -23 -16 -27 -22 -5 -7 -8 -4 -8 7 0 10 -8 17
-18 17 -16 0 -20 -15 -31 -107 -7 -60 -14 -114 -17 -120 -2 -7 5 -13 16 -13
14 0 20 8 22 33 3 27 7 32 33 35 66 6 96 42 98 118 1 25 -5 41 -18 50 -22 17
-24 17 -50 2z m35 -55 c0 -47 -35 -93 -71 -93 -27 0 1 99 35 122 17 11 36 -4
36 -29z"/>
<path d="M10270 4003 c-62 -56 -47 -153 24 -153 48 0 65 8 81 41 21 40 19 95
-5 119 -28 28 -64 25 -100 -7z m78 -37 c8 -64 -30 -113 -65 -85 -17 15 -13 80
8 105 20 25 54 13 57 -20z"/>
<path d="M10465 4020 c-53 -21 -55 -69 -4 -95 16 -9 29 -19 29 -24 0 -18 -29
-32 -54 -25 -20 5 -26 2 -26 -10 0 -19 59 -23 91 -6 31 17 25 65 -11 87 -38
22 -35 48 4 48 16 1 31 6 34 13 2 7 -1 12 -6 12 -6 0 -16 2 -24 4 -7 3 -22 1
-33 -4z"/>
<path d="M10834 4022 c-55 -9 -92 -99 -60 -147 13 -20 25 -25 57 -25 57 0 89
34 89 93 0 58 -33 88 -86 79z m44 -68 c4 -52 -26 -95 -55 -78 -42 26 -17 129
30 122 18 -2 23 -11 25 -44z"/>
<path d="M5784 3983 c4 -21 9 -60 13 -86 5 -42 9 -48 27 -45 21 3 75 82 95
139 9 25 7 29 -8 29 -12 0 -22 -13 -30 -38 -7 -21 -21 -49 -31 -62 l-18 -23
-7 44 c-10 67 -15 79 -32 79 -13 0 -14 -7 -9 -37z"/>
<path d="M6457 3999 c-35 -27 -54 -90 -39 -124 14 -30 56 -34 84 -8 17 15 18
15 18 0 0 -10 8 -17 19 -17 16 0 19 11 25 71 4 39 10 77 13 85 9 24 -89 19
-120 -7z m77 -26 c-16 -68 -66 -117 -80 -79 -15 39 27 106 66 106 17 0 19 -4
14 -27z"/>
<path d="M6987 3999 c-35 -27 -54 -90 -39 -124 14 -30 56 -34 84 -8 17 15 18
15 18 0 0 -10 8 -17 19 -17 16 0 19 11 25 71 4 39 10 77 13 85 9 24 -89 19
-120 -7z m75 -4 c10 -10 -14 -84 -33 -101 -23 -20 -49 -12 -49 16 0 52 56 110
82 85z"/>
<path d="M7931 3951 c-15 -93 -14 -101 8 -101 16 0 19 11 25 71 4 39 10 77 13
85 3 9 -2 14 -14 14 -17 0 -22 -11 -32 -69z"/>
<path d="M8514 3986 c-53 -53 -46 -136 12 -136 13 0 30 7 38 16 15 14 16 14
16 0 0 -9 8 -16 19 -16 15 0 20 10 25 53 4 28 9 67 12 85 l6 32 -47 0 c-40 0
-52 -5 -81 -34z m78 -26 c-5 -43 -29 -80 -53 -80 -15 0 -19 7 -19 39 0 31 6
44 27 61 35 27 49 21 45 -20z"/>
<path d="M9746 3949 c-4 -39 -10 -77 -13 -85 -3 -9 2 -14 15 -14 16 0 21 9 26
44 7 48 38 96 62 96 8 0 14 7 14 15 0 21 -30 19 -46 -2 -13 -17 -13 -17 -14 0
0 10 -8 17 -19 17 -16 0 -19 -11 -25 -71z"/>
<path d="M10576 3988 c-3 -18 -8 -57 -12 -87 -6 -48 -5 -53 12 -49 14 2 20 16
26 58 4 30 10 67 13 83 3 21 1 27 -14 27 -13 0 -20 -10 -25 -32z"/>
<path d="M10942 3873 c4 -22 43 -25 43 -3 0 8 -11 16 -23 18 -19 3 -23 0 -20
-15z"/>
</g>
</svg>
